<svg width="33" height="19" viewBox="0 0 33 19" fill="none" xmlns="http://www.w3.org/2000/svg">
<path d="M21.376 0.307206V0.819206C20.8299 0.836272 20.4117 0.904539 20.1216 1.02401C19.8315 1.12641 19.6352 1.33121 19.5328 1.63841C19.4475 1.92854 19.4048 2.38934 19.4048 3.02081V15.7184C19.4048 16.3328 19.456 16.7936 19.5584 17.1008C19.6608 17.408 19.8485 17.6128 20.1216 17.7152C20.4117 17.8176 20.8299 17.8859 21.376 17.92V18.432C20.9323 18.3979 20.3691 18.3808 19.6864 18.3808C19.0037 18.3637 18.3125 18.3552 17.6128 18.3552C16.8448 18.3552 16.1195 18.3637 15.4368 18.3808C14.7712 18.3808 14.2336 18.3979 13.824 18.432V17.92C14.4043 17.8859 14.8395 17.8176 15.1296 17.7152C15.4368 17.6128 15.6416 17.408 15.744 17.1008C15.8464 16.7936 15.8976 16.3328 15.8976 15.7184V1.79201L16.0768 1.81761L9.728 18.5088H9.3184L2.56 1.94561V14.6432C2.56 15.4624 2.6112 16.1024 2.7136 16.5632C2.816 17.0069 3.03787 17.3312 3.3792 17.536C3.7376 17.7237 4.2752 17.8517 4.992 17.92V18.432C4.66774 18.3979 4.2496 18.3808 3.7376 18.3808C3.2256 18.3637 2.7392 18.3552 2.2784 18.3552C1.8688 18.3552 1.45067 18.3637 1.024 18.3808C0.614403 18.3808 0.27307 18.3979 3.06587e-06 18.432V17.92C0.563203 17.8517 0.981336 17.7237 1.2544 17.536C1.54454 17.3483 1.73227 17.0411 1.8176 16.6144C1.92 16.1877 1.9712 15.5989 1.9712 14.848V3.02081C1.9712 2.38934 1.92 1.92854 1.8176 1.63841C1.73227 1.33121 1.54454 1.12641 1.2544 1.02401C0.981336 0.904539 0.563203 0.836272 3.06587e-06 0.819206V0.307206C0.27307 0.324273 0.614403 0.341339 1.024 0.358406C1.45067 0.375472 1.8688 0.384005 2.2784 0.384005C2.90987 0.384005 3.52427 0.375472 4.1216 0.358406C4.71894 0.341339 5.248 0.324273 5.7088 0.307206L11.2128 14.0544L10.6496 14.5152L16 0.384005C16.256 0.384005 16.5205 0.384005 16.7936 0.384005C17.0837 0.384005 17.3568 0.384005 17.6128 0.384005C18.3125 0.384005 19.0037 0.375472 19.6864 0.358406C20.3691 0.341339 20.9323 0.324273 21.376 0.307206ZM26.3422 5.82886e-06C27.2979 5.82886e-06 28.0318 0.102406 28.5438 0.307206C29.0558 0.512006 29.4995 0.733872 29.875 0.972806C30.0798 1.09227 30.2419 1.18614 30.3614 1.25441C30.4979 1.30561 30.6259 1.33121 30.7454 1.33121C30.9161 1.33121 31.0355 1.23734 31.1038 1.04961C31.1891 0.861872 31.2574 0.580272 31.3086 0.204806H31.8974C31.8803 0.529073 31.8547 0.904539 31.8206 1.33121C31.8035 1.75787 31.7865 2.32961 31.7694 3.04641C31.7694 3.74614 31.7694 4.67627 31.7694 5.83681H31.1806C31.1294 4.96641 30.9331 4.13014 30.5918 3.32801C30.2675 2.52587 29.7982 1.86881 29.1838 1.35681C28.5865 0.827739 27.8185 0.563206 26.8798 0.563206C26.0435 0.563206 25.3438 0.810673 24.7806 1.30561C24.2345 1.80054 23.9614 2.46614 23.9614 3.30241C23.9614 4.01921 24.1406 4.62507 24.499 5.12001C24.8574 5.59787 25.3609 6.06721 26.0094 6.52801C26.675 6.97174 27.4601 7.48374 28.3646 8.06401C29.2009 8.61014 29.9518 9.15627 30.6174 9.70241C31.283 10.2315 31.8035 10.8203 32.179 11.4688C32.5715 12.1173 32.7678 12.9109 32.7678 13.8496C32.7678 14.9589 32.4947 15.8805 31.9486 16.6144C31.4025 17.3483 30.6686 17.8944 29.747 18.2528C28.8254 18.6112 27.8185 18.7904 26.7262 18.7904C25.7193 18.7904 24.9171 18.688 24.3198 18.4832C23.7395 18.2784 23.2361 18.0651 22.8094 17.8432C22.4339 17.6043 22.1438 17.4848 21.939 17.4848C21.7683 17.4848 21.6403 17.5787 21.555 17.7664C21.4867 17.9541 21.427 18.2357 21.3758 18.6112H20.787C20.8211 18.2187 20.8382 17.7579 20.8382 17.2288C20.8553 16.6997 20.8638 16.0171 20.8638 15.1808C20.8809 14.3275 20.8894 13.2523 20.8894 11.9552H21.4782C21.5465 13.0475 21.7342 14.0715 22.0414 15.0272C22.3657 15.9659 22.8521 16.7253 23.5006 17.3056C24.1662 17.8859 25.0451 18.176 26.1374 18.176C26.7347 18.176 27.2723 18.0736 27.7502 17.8688C28.2451 17.6469 28.6377 17.3141 28.9278 16.8704C29.2179 16.4096 29.363 15.8293 29.363 15.1296C29.363 14.4299 29.2009 13.8155 28.8766 13.2864C28.5523 12.7573 28.1001 12.2624 27.5198 11.8016C26.9395 11.3408 26.2569 10.8715 25.4718 10.3936C24.6697 9.88161 23.9187 9.36107 23.219 8.83201C22.5193 8.30294 21.9561 7.70561 21.5294 7.04001C21.1198 6.35734 20.915 5.53814 20.915 4.58241C20.915 3.52427 21.171 2.66241 21.683 1.99681C22.195 1.31414 22.8606 0.810672 23.6798 0.486406C24.5161 0.162139 25.4035 5.82886e-06 26.3422 5.82886e-06Z" fill="white"/>
</svg>
