<svg width="23" height="19" viewBox="0 0 23 19" fill="none" xmlns="http://www.w3.org/2000/svg">
<path d="M-1.11705e-06 18.6182V-3.32919e-06H6.98182C8.41212 -3.32919e-06 9.61212 0.266663 10.5818 0.799997C11.5576 1.33333 12.2939 2.06666 12.7909 3C13.2939 3.92727 13.5455 4.98181 13.5455 6.16363C13.5455 7.35757 13.2939 8.41818 12.7909 9.34545C12.2879 10.2727 11.5455 11.003 10.5636 11.5364C9.58182 12.0636 8.37273 12.3273 6.93636 12.3273H2.30909V9.55454H6.48182C7.31818 9.55454 8.00303 9.40909 8.53636 9.11818C9.0697 8.82727 9.46364 8.42727 9.71818 7.91818C9.97879 7.40909 10.1091 6.82424 10.1091 6.16363C10.1091 5.50303 9.97879 4.92121 9.71818 4.41818C9.46364 3.91515 9.06667 3.52424 8.52727 3.24545C7.99394 2.9606 7.30606 2.81818 6.46364 2.81818H3.37273V18.6182H-1.11705e-06ZM22.8659 -3.32919e-06V18.6182H19.4932V3.28181H19.3841L15.0295 6.06363V2.97272L19.6568 -3.32919e-06H22.8659Z" fill="#FFB500"/>
</svg>
